<svg id="Capa_1" data-name="Capa 1" xmlns="http://www.w3.org/2000/svg" viewBox="0 0 40 40"><defs><style>.cls-1{fill:#979797;}.cls-2{fill:#6bc0dc;}.cls-3{fill:#fff;}</style></defs><title>iconos</title><path class="cls-1" d="M11.27,14.84c0.54,1.2,1.07,2.41,1.62,3.61a1.09,1.09,0,0,0,.38.41,0.37,0.37,0,0,0,.61-0.34c0-.64-0.09-1.29-0.2-1.92-0.14-.85-0.32-1.7-0.52-2.55C13,13.5,12.83,13,12.68,12.44q-0.34-1.16-.67-2.33c-0.13-.47-0.3-0.94-0.39-1.42a4.1,4.1,0,0,1,.12-2.07,1,1,0,0,1,1.76-.32,4.83,4.83,0,0,1,1,2.09c0.3,1.4.55,2.81,0.86,4.2,0.19,0.84.45,1.66,0.68,2.49,0.15,0.54.26,1.09,0.43,1.62S16.79,17.6,17,18a0.33,0.33,0,0,0,.1.15,0.46,0.46,0,0,0,.27.12,0.34,0.34,0,0,0,.22-0.22,3.67,3.67,0,0,0,0-.94c-0.1-.74-0.25-1.48-0.37-2.22s-0.27-1.65-.38-2.48a18.44,18.44,0,0,0-.49-2.71,7.29,7.29,0,0,1-.16-2.46,1.35,1.35,0,0,1,.12-0.45,0.85,0.85,0,0,1,1.4-.22,3.21,3.21,0,0,1,.74,1.33,20.93,20.93,0,0,1,.7,3c0.27,1.38.57,2.76,0.81,4.15a21.34,21.34,0,0,0,.88,3.37c0.31,0.89.67,1.76,1,2.63a3.38,3.38,0,0,0,.88,1.26,1.48,1.48,0,0,0,1.93.17,7,7,0,0,0,2-1.7,13.77,13.77,0,0,0,.91-1.47,3.79,3.79,0,0,1,1.66-1.67,1.45,1.45,0,0,1,1.69.2,0.84,0.84,0,0,1,.27.95,4.22,4.22,0,0,1-.34.75c-0.31.53-.63,1-0.95,1.57a7.16,7.16,0,0,1-1.33,1.66,6.46,6.46,0,0,0-1.54,2.33,14.39,14.39,0,0,0-.8,2.93,7.84,7.84,0,0,1-1.35,3.22,6.1,6.1,0,0,1-2.1,1.87,2.26,2.26,0,0,1-1.07.23,3.07,3.07,0,0,0-1.81.52,15.09,15.09,0,0,1-1.32.81,3.21,3.21,0,0,1-2.64.19,5.31,5.31,0,0,1-2-1.35,11.72,11.72,0,0,1-2.15-2.92c-0.57-1.1-1.11-2.23-1.62-3.36A8.86,8.86,0,0,1,9.51,25a3.68,3.68,0,0,0-.75-1.57C7.9,22.21,7,21,6.17,19.8c-0.4-.55-0.83-1.07-1.23-1.62a4.5,4.5,0,0,1-.84-1.57,1,1,0,0,1,1.48-1.14A3.63,3.63,0,0,1,6.8,16.72c0.49,0.74.92,1.51,1.39,2.26a10.11,10.11,0,0,0,1.74,2.26,1.55,1.55,0,0,0,.24.18,0.62,0.62,0,0,0,1-.49,1.76,1.76,0,0,0-.09-0.81c-0.25-.61-0.56-1.2-0.85-1.8-0.39-.79-0.79-1.57-1.16-2.37S8.35,14.31,8,13.49c-0.28-.65-0.55-1.3-0.79-2a2.05,2.05,0,0,1-.09-1.07,1.21,1.21,0,0,1,.69-0.87,0.79,0.79,0,0,1,.86.11,4,4,0,0,1,1.09,1.38,28.07,28.07,0,0,1,1.56,3.74Z"/><path class="cls-2" d="M31.26,29s6.57-14,5.26-15.08S33,13.16,31.26,29Z"/><circle class="cls-2" cx="30.7" cy="32.67" r="1.83"/><path class="cls-3" d="M20.69,30.2l-1.77-3.45-3,1.54,1.77,3.45-1.61.82-3.94-7.69L13.75,24l1.48,2.9,3-1.54-1.48-2.9,1.62-.83,3.94,7.69Z"/><path class="cls-3" d="M19.62,22.69l-0.72-1.4,1.51-.77,0.72,1.4Zm3.27,6.38L20,23.37l1.51-.77,2.92,5.7Z"/></svg>