<svg id="Capa_1" data-name="Capa 1" xmlns="http://www.w3.org/2000/svg" viewBox="0 0 40 40"><defs><style>.cls-1{fill:#6bc0dc;}.cls-2{fill:#979797;}</style></defs><title>iconos</title><path class="cls-1" d="M10.88,13.12v1.56H5.75v4.8h5.13V21H5.75V27.4H4V13.12h6.93Z"/><path class="cls-2" d="M17.35,13.36l5.09,14H21.61l-2.24-6.17H14.51L12.23,27.4H11.39l5.15-14h0.81Zm1.73,7.08-2.13-5.89L14.8,20.44h4.28Z"/><path class="cls-2" d="M30.21,27.57a7.22,7.22,0,0,1-7.12-7.21,7.2,7.2,0,0,1,7.2-7.2,7.2,7.2,0,0,1,7.21,7.2,7.23,7.23,0,0,1-5.61,7,7.08,7.08,0,0,1,1.82.88,4.47,4.47,0,0,0,1.51.51,1.12,1.12,0,0,0,1.16-1.19h0.79a1.83,1.83,0,0,1-1.77,1.83A4.49,4.49,0,0,1,33,28.76a5.42,5.42,0,0,0-1.95-.7,1.63,1.63,0,0,0-1,.35,1.47,1.47,0,0,0-.44.7,4.4,4.4,0,0,0-.12.51H28.74A2.19,2.19,0,0,1,30.21,27.57ZM30.29,14a6.41,6.41,0,0,0-6.39,6.39,6.41,6.41,0,0,0,6.39,6.4,6.4,6.4,0,0,0,6.4-6.4A6.41,6.41,0,0,0,30.29,14Z"/></svg>