<svg id="Capa_1" data-name="Capa 1" xmlns="http://www.w3.org/2000/svg" viewBox="0 0 40 40"><defs><style>.cls-1{fill:#979797;}</style></defs><title>iconos</title><g id="_Grupo_" data-name="&lt;Grupo&gt;"><path id="_Trazado_" data-name="&lt;Trazado&gt;" class="cls-1" d="M17.61,5.51a2.63,2.63,0,1,1-5.26,0A2.63,2.63,0,0,1,17.61,5.51Z"/><g id="_Grupo_2" data-name="&lt;Grupo&gt;"><g id="_Grupo_3" data-name="&lt;Grupo&gt;"><path id="_Trazado_compuesto_" data-name="&lt;Trazado compuesto&gt;" class="cls-1" d="M26.54,18.94a2.82,2.82,0,0,0-1.12.23,2.85,2.85,0,0,0-2.65-1.81,2.82,2.82,0,0,0-1.24.29A2.85,2.85,0,0,0,19,16.11a2.81,2.81,0,0,0-.92.16v-4a2.85,2.85,0,1,0-5.7,0V24.47l-2.05-2.35,0,0a2.86,2.86,0,0,0-2-.84h0a2.82,2.82,0,0,0-2,.83c-0.94.94-1,2.34-.14,3.84,1.1,1.94,2.3,3.76,3.36,5.38,0.77,1.18,1.5,2.29,2,3.21s1.69,3.39,1.7,3.41a1,1,0,0,0,.87.55H26.25a1,1,0,0,0,.92-0.67c0.23-.71,2.22-7,2.22-9.39V21.81a2.86,2.86,0,0,0-2.85-2.87h0Zm-0.92,2.87a0.92,0.92,0,1,1,1.84,0v6.58c0,1.61-1.24,5.93-1.92,8.14H14.67c-0.4-.83-1.15-2.37-1.52-3-0.56-1-1.3-2.1-2.09-3.3-1-1.59-2.22-3.39-3.29-5.27a1.35,1.35,0,0,1-.17-1.52,0.92,0.92,0,0,1,.65-0.26,0.94,0.94,0,0,1,.65.26l3.72,4.25A1,1,0,0,0,14.3,27V12.26a0.92,0.92,0,1,1,1.84,0V22.1a1,1,0,0,0,1.93,0V19a0.92,0.92,0,1,1,1.84,0v4.38a1,1,0,0,0,1.93,0V20.23a0.92,0.92,0,1,1,1.84,0v4.38a1,1,0,0,0,1.93,0V21.81h0Zm0,0"/></g></g></g></svg>