<svg id="Capa_1" data-name="Capa 1" xmlns="http://www.w3.org/2000/svg" viewBox="0 0 40 40"><defs><style>.cls-1{fill:#979797;}.cls-2{fill:#6bc0dc;}</style></defs><title>iconos</title><path class="cls-1" d="M19.76,22.93h0a7.21,7.21,0,1,0-13.48.46h0a7.17,7.17,0,0,0,.43.85l5.86,11.54,5.91-10.56a7.2,7.2,0,0,0,1.28-2.28v0Zm-6.83-6.49a4.18,4.18,0,1,1-4.18,4.18A4.18,4.18,0,0,1,12.93,16.43Z"/><path class="cls-1" d="M31.66,9S24.34,12,25.32,16.76s1.46,9.34-6.62,11.85l-4.25,7.18S30.69,31,30.13,23.73,24.21,16.07,31.66,9Z"/><circle class="cls-2" cx="35.16" cy="7.59" r="2.46"/></svg>