<svg id="Capa_1" data-name="Capa 1" xmlns="http://www.w3.org/2000/svg" viewBox="0 0 40 40"><defs><style>.cls-1{fill:#979797;}</style></defs><title>iconos</title><path class="cls-1" d="M28.05,8.15l0.44,8.14h-1a12.83,12.83,0,0,0-3.68-5A6.62,6.62,0,0,0,20,10a3.08,3.08,0,0,0-2,.7,2.07,2.07,0,0,0-.84,1.62,2,2,0,0,0,.58,1.33,27.6,27.6,0,0,0,5.21,3.59,20.81,20.81,0,0,1,5.63,4.31,6.38,6.38,0,0,1,1.35,4,7.57,7.57,0,0,1-1.13,3.9,7.48,7.48,0,0,1-3.2,2.94,10.17,10.17,0,0,1-4.57,1,17.73,17.73,0,0,1-5.21-1.07A4.83,4.83,0,0,0,14.61,32,1.87,1.87,0,0,0,13,33.31h-1l-0.47-8.58h1a11,11,0,0,0,3.59,5.05,7.39,7.39,0,0,0,4.32,1.68,3.41,3.41,0,0,0,2.28-.75,2.31,2.31,0,0,0,.89-1.82,2.93,2.93,0,0,0-.87-2.12,22.5,22.5,0,0,0-3.9-2.71,30,30,0,0,1-5.76-4.13,6.69,6.69,0,0,1-1.92-4.62,7,7,0,0,1,2.17-5,8.34,8.34,0,0,1,6.27-2.23A10.18,10.18,0,0,1,23.92,9a3.12,3.12,0,0,0,1.28.38A1.63,1.63,0,0,0,26,9.23a5.07,5.07,0,0,0,1-1.08h1Z"/></svg>