<svg id="Capa_1" data-name="Capa 1" xmlns="http://www.w3.org/2000/svg" viewBox="0 0 40 40"><defs><style>.cls-1{fill:#6bc0dc;}.cls-2{fill:#979797;}</style></defs><title>iconos</title><path class="cls-1" d="M7.93,12.36A6.06,6.06,0,0,1,13,10.06c0.27,0,.53,0,0.8,0a1.24,1.24,0,0,1,1.37,1.33A12.2,12.2,0,0,1,15,13.53,6.7,6.7,0,0,1,14.7,15a1.85,1.85,0,0,1-1.93,1.33l-1.4,0a1.54,1.54,0,0,0-1.58,1.19,8.47,8.47,0,0,0-.41,2.86,13.07,13.07,0,0,0,.3,3.31,3.16,3.16,0,0,0,.59,1.24,1.42,1.42,0,0,0,1.28.5c0.54,0,1.08-.08,1.62-0.06a1.7,1.7,0,0,1,1.59,1.1,8.61,8.61,0,0,1,.66,3.85A1.27,1.27,0,0,1,14,31.62c-0.69,0-1.37,0-2.05,0A4.92,4.92,0,0,1,10.11,31a6.06,6.06,0,0,1-2-1.58,8.94,8.94,0,0,1-1.6-3,20.19,20.19,0,0,1-.76-6.53,16.49,16.49,0,0,1,.59-4.27,13.63,13.63,0,0,1,.86-2.08A11.12,11.12,0,0,1,7.93,12.36Z"/><path class="cls-2" d="M24,30.05a3.68,3.68,0,0,1-1.52-.32c-2.3-1-5.91-5.08-4.92-9.41a18.12,18.12,0,0,0-.36-7.63,0.89,0.89,0,0,1,1.72-.49,19.63,19.63,0,0,1,.38,8.51c-0.75,3.29,2.2,6.61,3.92,7.39a1.64,1.64,0,0,0,1.86-.27c0.16-.28-0.15-0.94-1.23-1.73-3-2.2-3.57-5.94-2.62-7.44a1.72,1.72,0,0,1,2.42-.57A16.64,16.64,0,0,1,26.92,21a13.64,13.64,0,0,0,2.8,2.5c0.63-.3,2.43-2.38,4-4.65a0.89,0.89,0,0,1,1.47,1c-0.79,1.14-3.49,4.9-5,5.36-1.29.39-2.66-1-4.55-3a16.59,16.59,0,0,0-2.87-2.61l-0.07,0a1.89,1.89,0,0,0-.15,1,5.63,5.63,0,0,0,2.32,4c2.59,1.89,2.07,3.48,1.72,4.07A3,3,0,0,1,24,30.05Z"/><path class="cls-2" d="M26.8,20.37a0.89,0.89,0,0,1-.67-1.49l5.69-6.39a0.89,0.89,0,1,1,1.33,1.19l-5.69,6.39A0.89,0.89,0,0,1,26.8,20.37Z"/><path class="cls-2" d="M29.18,21.73a0.89,0.89,0,0,1-.65-1.51l4.35-4.56a0.89,0.89,0,0,1,1.29,1.23l-4.35,4.56A0.89,0.89,0,0,1,29.18,21.73Z"/><path class="cls-2" d="M24.12,18.21a0.89,0.89,0,0,1-.66-1.5L26.85,13a0.89,0.89,0,0,1,1.31,1.21l-3.38,3.68A0.89,0.89,0,0,1,24.12,18.21Z"/></svg>